<svg width="61" height="65" viewBox="0 0 61 65" fill="none" xmlns="http://www.w3.org/2000/svg">
<mask id="mask0_1650_9135" style="mask-type:alpha" maskUnits="userSpaceOnUse" x="0" y="4" width="60" height="61">
<rect x="0.199219" y="4.59375" width="59.6016" height="59.6016" fill="#D9D9D9"/>
</mask>
<g mask="url(#mask0_1650_9135)">
<path d="M2.68359 54.2578V47.3043C2.68359 45.897 3.04576 44.6036 3.77008 43.424C4.49441 42.2444 5.45672 41.3441 6.65703 40.7233C9.22321 39.4402 11.8308 38.4779 14.4797 37.8363C17.1287 37.1948 19.819 36.874 22.5508 36.874C25.2825 36.874 27.9729 37.1948 30.6218 37.8363C33.2708 38.4779 35.8784 39.4402 38.4445 40.7233C39.6448 41.3441 40.6072 42.2444 41.3315 43.424C42.0558 44.6036 42.418 45.897 42.418 47.3043V54.2578H2.68359ZM47.3848 54.2578V46.8076C47.3848 44.9865 46.8777 43.2377 45.8637 41.5614C44.8496 39.8851 43.4113 38.4468 41.5488 37.2465C43.6597 37.4949 45.6464 37.9191 47.5089 38.5193C49.3715 39.1194 51.1099 39.8541 52.7241 40.7233C54.2141 41.5511 55.3523 42.472 56.1387 43.4861C56.9252 44.5001 57.3184 45.6073 57.3184 46.8076V54.2578H47.3848ZM22.5508 34.3906C19.819 34.3906 17.4805 33.418 15.5352 31.4726C13.5899 29.5273 12.6172 27.1888 12.6172 24.457C12.6172 21.7253 13.5899 19.3868 15.5352 17.4414C17.4805 15.4961 19.819 14.5234 22.5508 14.5234C25.2825 14.5234 27.6211 15.4961 29.5664 17.4414C31.5117 19.3868 32.4844 21.7253 32.4844 24.457C32.4844 27.1888 31.5117 29.5273 29.5664 31.4726C27.6211 33.418 25.2825 34.3906 22.5508 34.3906ZM47.3848 24.457C47.3848 27.1888 46.4121 29.5273 44.4668 31.4726C42.5215 33.418 40.1829 34.3906 37.4512 34.3906C36.9959 34.3906 36.4164 34.3389 35.7128 34.2354C35.0092 34.1319 34.4297 34.0181 33.9744 33.8939C35.0919 32.5695 35.9508 31.1001 36.5509 29.4859C37.1511 27.8717 37.4512 26.1954 37.4512 24.457C37.4512 22.7187 37.1511 21.0424 36.5509 19.4282C35.9508 17.8139 35.0919 16.3446 33.9744 15.0201C34.5539 14.8132 35.1333 14.6786 35.7128 14.6166C36.2923 14.5545 36.8717 14.5234 37.4512 14.5234C40.1829 14.5234 42.5215 15.4961 44.4668 17.4414C46.4121 19.3868 47.3848 21.7253 47.3848 24.457Z" fill="white"/>
</g>
<path d="M51.0052 0.796875C51.0088 5.82925 55.0874 9.90792 60.1198 9.91148C55.0874 9.91504 51.0088 13.9937 51.0052 19.0261C51.0017 13.9937 46.923 9.91504 41.8906 9.91148C46.923 9.90792 51.0017 5.82925 51.0052 0.796875Z" fill="white"/>
</svg>
